<?xml version="1.0" standalone="no"?>
<!DOCTYPE svg PUBLIC "-//W3C//DTD SVG 20010904//EN"
 "http://www.w3.org/TR/2001/REC-SVG-20010904/DTD/svg10.dtd">
<svg version="1.0" xmlns="http://www.w3.org/2000/svg"
 width="500.000000pt" height="500.000000pt" viewBox="0 0 500.000000 500.000000"
 preserveAspectRatio="xMidYMid meet">

<g transform="translate(0.000000,500.000000) scale(0.100000,-0.100000)"
fill="#000000" stroke="none">
<path d="M2518 4663 c-13 -15 -19 -60 -30 -232 -17 -268 -25 -251 128 -262 60
-4 136 -10 170 -14 56 -7 63 -5 82 15 23 25 21 26 36 -24 3 -8 24 -20 48 -26
24 -7 68 -21 99 -31 94 -32 103 -28 134 54 10 26 23 47 29 48 6 0 34 0 61 0
28 -1 63 5 79 14 16 8 30 14 32 12 2 -2 -19 -40 -46 -86 -61 -102 -65 -115
-44 -135 28 -28 94 -57 115 -51 14 5 19 2 19 -13 0 -13 21 -33 63 -60 34 -23
100 -73 147 -111 47 -39 93 -71 103 -73 12 -2 24 -18 33 -43 15 -47 71 -102
111 -110 59 -13 71 -22 66 -49 -14 -73 34 -152 111 -181 36 -14 50 -15 87 -5
59 16 117 76 125 131 4 22 9 38 13 37 63 -33 59 -33 96 2 41 40 56 85 45 134
-20 90 -102 145 -187 126 -20 -5 -39 -8 -40 -6 -2 1 6 20 17 41 24 46 25 74 6
118 -27 64 -111 114 -170 101 -74 -15 -136 -87 -136 -157 0 -31 -3 -32 -34
-12 -19 13 -29 13 -48 4 -21 -9 -31 -7 -62 13 -35 22 -46 50 -26 63 6 3 23 -3
39 -14 43 -31 67 -27 96 16 32 48 31 53 -5 88 -44 42 -21 52 33 14 25 -17 52
-29 60 -26 27 10 69 75 62 96 -8 25 -174 161 -197 161 -10 0 -59 -52 -117
-124 -56 -69 -106 -128 -112 -132 -9 -5 -10 4 -5 32 4 21 14 44 23 49 74 47
113 109 113 180 0 41 -5 50 -43 88 -24 23 -72 55 -106 72 l-63 30 -22 -27
c-11 -14 -32 -41 -45 -59 l-23 -34 5 37 c13 89 -30 144 -146 188 -73 29 -81
30 -102 16 -14 -9 -34 -44 -50 -88 -56 -148 -88 -219 -95 -211 -8 9 -30 94
-30 116 0 8 27 49 60 92 82 106 79 139 -13 151 -33 5 -51 2 -68 -9 -21 -15
-23 -15 -33 6 -6 12 -23 27 -36 34 -35 18 -105 16 -120 -2 -11 -14 -14 -13
-27 4 -15 22 -38 27 -163 36 -75 6 -88 4 -102 -12z m175 -20 l67 -6 0 -43 0
-44 -65 0 -65 0 0 -40 0 -40 44 0 c25 0 47 -4 50 -8 3 -5 2 -26 -1 -47 l-6
-37 -48 4 c-52 5 -59 -2 -59 -64 0 -26 3 -28 44 -28 64 0 96 -14 89 -39 -3
-12 -2 -21 2 -21 9 0 17 10 81 101 l46 67 -22 107 c-12 59 -18 111 -13 116 4
4 29 3 54 -2 41 -9 47 -14 53 -41 3 -17 6 -41 6 -54 0 -32 12 -30 33 6 33 56
42 60 90 46 23 -7 41 -18 40 -24 -2 -6 -29 -48 -62 -94 l-59 -83 18 -95 c25
-126 25 -150 1 -150 -33 0 -80 21 -85 38 -3 10 -8 39 -12 66 l-7 48 -27 -43
c-38 -61 -51 -70 -86 -60 -17 5 -85 12 -151 16 -66 4 -125 10 -131 14 -9 5 -8
59 3 206 8 110 15 208 15 218 0 19 41 22 163 10z m133 -157 l17 -86 -28 -40
c-39 -57 -44 -59 -110 -52 -51 6 -60 10 -60 27 0 17 7 20 43 21 52 1 62 13 62
76 0 53 -15 68 -70 68 -21 0 -30 4 -27 13 2 8 21 11 60 9 61 -4 76 8 78 65 0
26 1 26 9 7 5 -12 16 -61 26 -108z m499 3 c77 -36 101 -73 90 -139 -9 -51 -52
-116 -87 -131 -27 -11 -85 -8 -119 5 -12 5 -22 -9 -43 -64 -15 -38 -31 -70
-36 -70 -22 0 -80 32 -80 45 0 8 7 29 15 47 8 18 35 87 60 153 76 200 75 198
106 191 15 -3 57 -19 94 -37z m277 -129 c111 -60 138 -114 97 -195 -22 -44
-64 -85 -88 -85 -16 0 -28 -29 -41 -107 -17 -92 -22 -101 -52 -84 -64 34 -63
32 -44 122 10 44 14 84 11 87 -8 9 -30 -20 -61 -80 -13 -27 -29 -48 -35 -48
-21 0 -80 42 -77 55 6 27 213 365 224 365 6 0 35 -14 66 -30z m328 -227 c44
-36 80 -71 80 -78 0 -6 -11 -22 -25 -35 -28 -26 -25 -27 -89 24 l-36 28 -20
-23 c-26 -32 -25 -43 10 -72 36 -31 38 -46 6 -76 l-25 -23 -37 31 c-36 29 -39
30 -57 13 -43 -39 -42 -52 7 -94 25 -22 46 -45 46 -51 -1 -17 -36 -57 -50 -57
-7 0 -50 32 -97 71 -56 48 -81 75 -75 82 66 88 265 327 273 327 5 0 46 -30 89
-67z m208 -193 c63 -39 88 -110 58 -169 -26 -50 -39 -54 -75 -20 -23 21 -31
35 -26 47 17 40 17 52 0 58 -9 4 -23 0 -33 -9 -14 -15 -14 -24 -3 -82 17 -85
8 -127 -34 -170 -61 -61 -135 -57 -194 10 -41 48 -47 86 -21 139 28 58 46 64
83 28 29 -30 29 -30 11 -60 -14 -26 -15 -33 -5 -46 19 -23 38 -20 57 9 14 21
15 32 5 69 -25 100 -4 167 60 199 45 22 77 21 117 -3z m22 -252 c0 -4 -9 -22
-20 -40 -11 -18 -20 -45 -20 -60 0 -31 -11 -36 -30 -13 -8 10 -9 28 -4 57 4
24 8 54 9 68 2 14 3 26 4 27 3 5 61 -33 61 -39z m181 -1 c69 -45 86 -131 38
-191 -27 -34 -42 -33 -73 5 l-26 31 20 25 c15 20 17 29 9 39 -6 8 -17 14 -25
14 -23 0 -34 -36 -34 -110 0 -112 -42 -169 -129 -178 -40 -3 -55 0 -80 18 -65
46 -81 136 -35 197 31 40 52 41 83 2 l23 -30 -22 -24 c-26 -28 -23 -59 6 -63
40 -6 54 22 54 109 0 99 16 134 73 160 55 24 77 24 118 -4z"/>
<path d="M2550 4621 c0 -5 -7 -95 -16 -201 -8 -106 -14 -194 -12 -195 2 -2 49
-6 106 -10 l102 -8 0 32 0 31 -57 0 c-32 0 -63 4 -69 8 -7 4 -9 28 -6 65 l4
57 49 0 c27 0 49 4 49 9 0 5 3 16 6 25 5 12 -5 15 -48 18 l-53 3 0 57 c0 32 5
58 10 59 6 0 36 0 68 -1 54 -1 57 0 57 23 0 21 -6 25 -46 31 -67 9 -144 7
-144 -3z"/>
<path d="M2850 4605 c0 -1 9 -44 20 -96 11 -52 20 -99 20 -105 0 -7 -30 -53
-66 -104 -36 -50 -64 -93 -62 -95 1 -1 17 -6 35 -10 31 -6 33 -4 75 61 l43 67
12 -49 c6 -27 12 -63 12 -81 1 -29 5 -33 36 -39 20 -3 38 -5 40 -3 2 2 -7 55
-20 118 l-23 115 55 74 c72 97 73 102 32 102 -30 0 -38 -6 -68 -55 -19 -30
-38 -55 -42 -55 -4 0 -11 21 -14 48 -13 99 -13 100 -51 104 -19 2 -34 3 -34 3z"/>
<path d="M3214 4493 c-3 -10 -6 -22 -6 -28 -1 -5 -7 -15 -13 -22 -22 -22 -129
-303 -119 -313 5 -5 20 -11 33 -12 20 -3 26 5 46 60 13 35 26 66 29 69 3 4 17
1 31 -5 37 -17 97 -15 124 4 27 19 61 94 61 132 -1 44 -40 81 -114 108 -63 23
-68 23 -72 7z m26 -28 c11 -13 10 -14 -4 -9 -9 3 -16 10 -16 15 0 13 6 11 20
-6z m74 -37 c-2 -4 0 -9 6 -13 5 -3 10 -1 10 4 0 6 5 11 12 11 9 0 9 -3 0 -12
-7 -7 -12 -25 -12 -40 0 -16 -7 -42 -15 -58 -12 -24 -22 -30 -48 -30 -56 0
-62 10 -41 71 10 30 22 59 26 65 9 12 69 14 62 2z m37 -45 c-12 -20 -14 -14
-5 12 4 9 9 14 11 11 3 -2 0 -13 -6 -23z m-11 -60 c-11 -17 -11 -17 -6 0 3 10
6 24 7 30 0 9 2 9 5 0 3 -7 0 -20 -6 -30z"/>
<path d="M3251 4373 c-8 -21 -16 -44 -18 -50 -9 -23 55 -16 67 7 17 32 9 74
-15 78 -16 2 -24 -6 -34 -35z"/>
<path d="M3480 4279 c-122 -202 -150 -251 -150 -259 0 -4 13 -13 30 -18 29
-11 30 -10 66 53 42 76 45 79 69 61 17 -12 17 -16 -2 -95 l-20 -82 25 -20 c14
-10 28 -19 32 -19 4 0 16 41 26 91 17 83 21 92 49 106 42 21 82 70 90 110 7
36 -19 93 -42 93 -7 0 -13 5 -13 11 0 6 -7 8 -16 5 -8 -3 -13 -2 -10 3 4 6
-62 51 -75 51 -3 0 -29 -41 -59 -91z m150 11 c0 -5 -5 -10 -11 -10 -5 0 -7 5
-4 10 3 6 8 10 11 10 2 0 4 -4 4 -10z m-16 -19 c40 -44 -9 -132 -66 -117 -43
11 -53 22 -41 48 6 13 12 28 14 33 8 22 44 55 59 55 9 0 25 -9 34 -19z"/>
<path d="M3549 4229 c-21 -42 -16 -58 17 -59 33 0 56 64 32 88 -19 19 -26 15
-49 -29z"/>
<path d="M3724 4037 c-65 -78 -124 -149 -131 -158 -12 -14 -4 -24 68 -83 75
-61 82 -65 95 -49 21 28 17 37 -35 79 l-49 40 20 24 c11 14 29 36 39 49 l19
23 41 -33 c40 -31 42 -32 55 -14 20 27 18 32 -26 61 -44 29 -43 32 8 88 l33
37 46 -41 c25 -22 49 -40 52 -40 7 0 34 41 29 44 -28 19 -95 74 -101 83 -4 7
-16 17 -27 23 -16 9 -34 -9 -136 -133z"/>
<path d="M4019 3915 c-45 -30 -52 -56 -44 -160 7 -81 7 -82 -20 -104 -34 -26
-40 -26 -64 -2 -20 20 -19 52 2 79 8 9 4 19 -12 35 l-22 22 -19 -23 c-44 -54
-32 -128 29 -171 43 -31 93 -27 135 9 43 39 51 74 35 157 -11 56 -11 69 2 91
16 30 52 40 75 22 17 -15 18 -52 2 -68 -10 -10 -7 -17 10 -35 l23 -22 19 25
c32 42 26 86 -19 131 -46 47 -80 50 -132 14z"/>
<path d="M4233 3674 c-52 -26 -66 -56 -65 -146 1 -71 -1 -82 -23 -104 -31 -31
-60 -31 -81 2 -16 24 -16 26 6 56 l22 30 -21 22 -22 21 -30 -33 c-35 -39 -38
-80 -9 -126 45 -73 139 -80 195 -14 24 29 26 37 24 121 -2 83 0 92 21 109 31
25 57 23 76 -7 15 -23 15 -27 -1 -51 -16 -25 -16 -27 2 -46 19 -18 20 -18 38
2 39 43 16 138 -40 164 -41 20 -52 20 -92 0z"/>
<path d="M2118 4650 c-93 -28 -143 -139 -109 -246 5 -16 12 -54 15 -84 l5 -55
-24 27 c-21 24 -22 32 -14 63 27 98 -56 215 -154 215 -37 0 -157 -45 -180 -68
-19 -19 -18 -21 33 -177 28 -86 50 -158 48 -160 -17 -14 -103 -53 -110 -49
-18 11 -6 33 27 53 47 28 51 43 23 93 -27 49 -53 58 -93 32 -18 -12 -29 -14
-37 -6 -7 7 4 18 40 36 27 14 52 32 55 40 9 23 -35 101 -59 104 -12 2 -67 -20
-123 -48 -83 -43 -101 -56 -101 -74 0 -13 23 -71 51 -130 27 -59 49 -112 47
-117 -2 -6 -38 40 -81 101 -59 83 -84 110 -100 110 -15 0 -29 11 -41 35 -26
48 -49 53 -93 18 -19 -15 -50 -38 -69 -50 -51 -35 -58 -54 -44 -131 16 -91 18
-95 99 -206 78 -108 89 -136 44 -112 -16 8 -75 47 -133 85 -58 39 -112 71
-121 71 -22 0 -112 -97 -106 -114 3 -7 39 -68 81 -135 73 -117 81 -141 51
-141 -7 0 -28 -19 -46 -41 -29 -37 -31 -44 -22 -70 6 -16 9 -29 6 -29 -9 0
-99 68 -113 86 -12 13 -10 14 12 9 21 -5 31 1 62 36 41 49 45 70 15 100 -45
45 -118 60 -167 35 -92 -48 -129 -158 -79 -237 24 -40 60 -73 155 -142 103
-75 168 -84 232 -30 34 28 70 91 70 123 0 11 4 20 10 20 13 0 79 59 91 82 8
14 5 28 -12 58 -18 31 -20 43 -11 52 9 9 19 7 42 -10 40 -30 50 -28 95 19 22
22 59 54 83 70 43 30 54 63 31 86 -21 21 1 36 27 19 35 -23 56 -20 100 17 42
35 281 160 327 171 16 4 40 18 53 31 18 18 32 23 48 19 35 -8 102 13 123 40
14 17 24 21 38 15 38 -15 129 -10 164 9 59 32 73 71 67 187 -6 115 -27 204
-58 247 -35 50 -102 69 -170 48z m119 -40 c46 -27 59 -61 78 -191 20 -138 12
-185 -36 -220 -41 -29 -107 -36 -147 -15 -48 25 -69 64 -86 162 -22 122 -21
181 4 222 36 59 126 80 187 42z m-324 -90 c48 -38 65 -114 42 -185 -4 -15 9
-39 50 -93 31 -40 55 -77 53 -84 -2 -6 -23 -17 -47 -24 l-43 -12 -50 69 c-70
96 -82 94 -48 -6 29 -83 27 -92 -20 -106 -25 -8 -44 -9 -48 -3 -13 14 -134
405 -128 411 2 3 33 16 68 29 80 29 137 31 171 4z m-310 -105 c9 -20 17 -38
17 -40 0 -3 -24 -17 -52 -31 -67 -33 -63 -28 -48 -64 13 -32 34 -38 65 -17 44
30 55 29 71 -8 7 -19 14 -38 14 -43 0 -4 -20 -18 -45 -30 l-45 -22 20 -40 c11
-22 23 -40 26 -40 2 0 27 11 54 25 27 14 53 25 58 25 12 0 41 -65 34 -76 -4
-5 -49 -31 -100 -58 -79 -40 -96 -46 -106 -35 -24 26 -188 381 -179 389 9 9
185 99 194 100 3 0 13 -16 22 -35z m-393 -74 c25 -48 2 -94 -56 -110 -16 -5
-28 -13 -27 -19 2 -7 -8 -19 -22 -28 -33 -22 -55 -5 -55 42 0 41 29 74 65 74
14 0 25 5 25 12 0 16 30 48 46 48 7 0 18 -9 24 -19z m199 -231 c67 -96 121
-179 121 -185 0 -5 -16 -20 -36 -33 l-35 -23 -67 42 c-37 23 -78 49 -92 58
-29 19 -27 15 37 -75 24 -34 43 -68 43 -76 0 -14 -52 -58 -67 -58 -4 1 -38 44
-75 98 -37 53 -93 134 -125 180 l-58 84 35 28 c19 16 39 30 44 30 5 0 42 -20
83 -45 40 -25 76 -45 79 -45 3 0 -15 29 -40 65 -25 36 -46 70 -46 75 0 9 71
62 76 57 1 -1 57 -81 123 -177z m-299 -236 c99 -64 182 -119 184 -122 2 -4
-11 -24 -30 -46 l-34 -39 -36 28 -36 27 -28 -27 -29 -28 25 -32 c13 -17 24
-36 24 -41 0 -6 -15 -25 -33 -42 -30 -29 -35 -31 -47 -17 -7 8 -62 97 -122
197 l-108 182 37 38 c20 21 41 38 45 38 5 0 89 -52 188 -116z m-295 -157 c22
-12 40 -27 40 -33 0 -5 -12 -24 -26 -43 -26 -33 -26 -33 -57 -17 -35 18 -62
12 -62 -14 0 -21 63 -80 143 -135 45 -30 62 -37 75 -29 26 17 25 32 -3 60 -29
29 -27 49 10 84 l25 23 26 -24 c37 -35 54 -72 54 -120 0 -36 -6 -48 -44 -85
-58 -59 -101 -60 -184 -8 -78 51 -160 122 -178 155 -31 60 -13 140 40 179 49
36 86 38 141 7z"/>
<path d="M2082 4573 l-34 -37 7 -97 c13 -194 43 -249 135 -249 40 0 56 5 81
28 41 37 47 92 24 214 -29 151 -48 176 -139 177 -32 0 -45 -6 -74 -36z m98
-23 c30 -16 40 -43 54 -150 14 -115 7 -143 -36 -148 -38 -4 -53 25 -72 139
-20 122 -20 125 4 149 23 23 25 23 50 10z m63 3 c-7 -2 -19 -2 -25 0 -7 3 -2
5 12 5 14 0 19 -2 13 -5z"/>
<path d="M2140 4520 c-11 -21 -1 -128 21 -211 18 -72 73 -51 63 24 -14 106
-26 172 -35 189 -13 24 -36 23 -49 -2z m58 -158 l-3 -67 -13 40 c-7 22 -15 69
-18 105 l-5 65 21 -38 c17 -30 20 -52 18 -105z"/>
<path d="M1770 4503 c-19 -9 -44 -18 -54 -20 -11 -2 -22 -5 -24 -7 -2 -3 21
-80 51 -173 31 -92 59 -178 62 -190 7 -25 25 -29 55 -13 17 9 17 13 -6 86 -20
61 -22 79 -12 86 24 15 33 8 81 -63 41 -59 52 -69 70 -63 48 14 50 19 25 50
-14 16 -39 50 -57 76 -31 43 -32 48 -21 80 17 45 6 99 -26 138 -21 25 -33 30
-67 30 -23 -1 -58 -8 -77 -17z m76 -39 c35 -9 57 -79 36 -112 -5 -7 -25 -15
-45 -19 -35 -5 -36 -4 -48 36 -7 23 -18 46 -26 52 -7 6 -13 19 -13 28 0 12 2
13 9 3 7 -11 9 -11 14 2 7 16 35 20 73 10z"/>
<path d="M1811 4441 c-22 -14 -3 -86 23 -86 31 0 44 31 26 62 -17 31 -29 36
-49 24z"/>
<path d="M1478 4378 l-77 -40 30 -62 c33 -67 39 -80 97 -207 42 -91 55 -107
75 -91 7 5 44 26 84 46 59 30 70 40 66 56 -9 32 -19 32 -81 1 l-59 -30 -27 56
c-15 30 -26 56 -24 57 2 2 21 13 43 26 22 13 41 25 43 26 2 1 -2 11 -9 22 -11
17 -17 18 -43 9 -17 -5 -37 -14 -44 -20 -8 -6 -16 -6 -21 -1 -14 16 -55 94
-50 96 2 2 26 15 54 30 27 14 51 32 54 39 2 7 -1 9 -8 5 -7 -5 -9 -1 -5 8 9
25 -14 18 -98 -26z"/>
<path d="M1173 4333 c-7 -3 -13 -13 -13 -23 0 -12 -10 -21 -30 -25 -40 -9 -60
-30 -60 -66 0 -36 15 -37 32 -2 9 19 24 29 47 34 37 8 51 23 51 56 0 24 -9 33
-27 26z"/>
<path d="M1252 4241 l-23 -17 65 -89 c94 -127 92 -129 -37 -48 -50 31 -99 56
-109 56 -10 -1 -16 3 -12 9 4 5 -5 2 -20 -7 -14 -10 -26 -21 -26 -25 0 -7 186
-289 214 -323 14 -18 16 -18 40 -2 14 10 23 22 19 29 -16 29 -158 222 -170
232 -7 6 -13 17 -13 25 1 10 3 10 10 -2 10 -17 68 -59 197 -142 72 -46 76 -48
99 -32 13 8 24 19 24 24 0 8 -95 147 -114 167 -6 6 -29 39 -51 72 -27 42 -47
62 -60 62 -15 0 -17 2 -6 9 7 5 9 11 4 14 -5 3 -19 -2 -31 -12z"/>
<path d="M897 3944 c-15 -14 -27 -29 -27 -34 0 -4 46 -86 101 -182 56 -95 104
-177 106 -181 6 -10 53 32 53 47 0 6 -9 22 -20 36 -26 33 -25 39 9 80 l29 34
41 -27 40 -27 25 27 25 26 -22 17 c-12 9 -69 45 -127 80 -58 35 -117 71 -131
81 -14 10 -29 16 -33 12 -3 -3 -6 -1 -6 5 0 6 -8 16 -18 21 -14 8 -25 4 -45
-15z m113 -95 c30 -23 64 -48 75 -55 19 -14 19 -15 -7 -40 -14 -15 -31 -23
-37 -19 -7 3 -30 36 -52 71 -23 35 -45 62 -50 58 -10 -6 -12 9 -2 19 11 11 16
9 73 -34z"/>
<path d="M1031 3779 c15 -21 25 -27 32 -20 12 12 -18 51 -40 51 -11 0 -9 -8 8
-31z"/>
<path d="M699 3703 c-38 -23 -59 -64 -59 -114 0 -41 4 -48 66 -106 97 -91 149
-123 200 -123 52 0 97 34 114 85 10 30 9 41 -9 78 -11 23 -29 47 -40 54 -17
10 -22 9 -36 -13 -16 -25 -16 -27 4 -48 29 -31 27 -70 -3 -84 -30 -13 -73 8
-168 84 -73 59 -87 84 -67 120 15 28 19 29 64 10 36 -15 45 -11 58 27 5 13 1
17 -16 17 -16 0 -18 3 -9 9 11 7 10 10 -3 15 -28 11 -69 6 -96 -11z"/>
<path d="M2340 4068 c-253 -15 -537 -114 -766 -267 -384 -256 -647 -664 -726
-1124 -17 -105 -20 -149 -15 -312 6 -212 21 -299 82 -475 44 -125 97 -240 153
-333 23 -37 39 -73 36 -80 -3 -8 9 -18 28 -25 46 -17 90 -83 96 -143 5 -53 7
-56 36 -34 11 8 30 15 42 15 27 0 74 -53 74 -83 0 -18 15 -28 78 -55 l77 -32
-50 6 -50 7 19 -22 c11 -11 16 -21 12 -21 -12 0 -144 69 -211 110 -80 49 -85
44 -7 -8 101 -69 244 -136 415 -193 107 -36 154 -39 82 -5 -69 32 -207 121
-199 128 3 4 -13 16 -36 28 -73 37 -292 268 -363 382 -9 16 -24 39 -33 52 -15
23 -14 24 7 19 12 -3 36 -26 53 -51 205 -296 498 -522 811 -627 204 -68 274
-79 515 -79 195 0 226 3 330 26 324 73 585 220 816 460 205 213 340 467 405
760 26 118 37 403 20 534 -48 366 -243 731 -521 971 -390 337 -894 469 -1384
363 -127 -28 -204 -54 -331 -114 -337 -160 -592 -408 -757 -738 -70 -139 -113
-276 -139 -435 -18 -117 -21 -162 -16 -312 6 -193 22 -288 78 -454 24 -71 29
-101 21 -109 -12 -12 -28 20 -68 142 -162 493 -49 1077 287 1485 64 78 187
200 264 262 187 150 436 262 697 315 95 19 144 23 303 22 169 0 204 -3 319
-28 333 -71 598 -217 833 -457 98 -101 130 -139 198 -244 109 -166 190 -361
233 -559 23 -108 26 -143 26 -321 0 -220 -14 -312 -75 -497 -179 -550 -668
-978 -1244 -1091 -90 -18 -144 -21 -300 -21 -222 1 -325 18 -513 84 -64 23
-183 57 -264 75 -225 52 -437 117 -590 181 -63 26 -98 32 -58 9 88 -51 358
-141 520 -174 71 -15 129 -34 180 -60 97 -51 291 -116 405 -136 140 -26 416
-31 555 -11 341 49 615 173 870 393 287 246 458 551 552 978 21 96 17 468 -5
575 -41 188 -140 441 -225 574 -111 172 -295 366 -452 478 -326 231 -675 323
-1130 296z m443 -143 c171 -31 385 -115 532 -208 80 -50 155 -107 155 -117 0
-5 -17 -12 -37 -15 -80 -14 -76 -9 -70 -91 4 -41 10 -92 13 -113 6 -37 4 -41
-20 -47 -34 -8 -45 -47 -21 -74 9 -10 78 -60 153 -111 76 -51 140 -97 143
-102 4 -5 9 -4 13 2 4 6 11 9 15 6 11 -6 10 -235 -1 -235 -4 0 -8 39 -8 88 0
48 -5 94 -10 102 -7 10 -10 -12 -10 -72 0 -67 -3 -88 -13 -88 -8 0 -22 -9 -32
-20 -16 -18 -31 -20 -135 -20 -115 0 -117 0 -128 25 -13 29 -10 32 48 38 26 3
21 4 -17 5 -40 2 -53 6 -53 17 0 11 11 15 39 15 61 0 71 6 60 42 -13 46 -37
77 -77 101 l-37 22 40 7 c22 4 55 8 73 9 17 1 32 6 32 10 0 17 -49 41 -72 34
-18 -5 -20 -4 -8 4 12 8 7 11 -20 11 -27 0 -32 -3 -20 -11 12 -8 8 -9 -15 -5
-16 3 -24 3 -17 0 10 -5 10 -9 1 -20 -16 -20 -29 -17 -26 5 4 23 56 101 68
101 5 0 9 5 9 10 0 15 -57 12 -90 -5 -35 -18 -40 -29 -9 -20 l21 7 -20 -20
c-14 -14 -20 -30 -17 -51 2 -17 0 -33 -6 -36 -8 -6 -13 8 -10 28 0 4 -4 7 -9
7 -6 0 -10 -5 -10 -11 0 -6 -10 -8 -22 -5 l-23 6 23 -11 c12 -7 22 -19 22 -28
0 -13 -2 -13 -9 -2 -8 13 -54 24 -95 23 -10 -1 -30 -11 -44 -24 l-25 -23 12
25 c12 24 11 24 -13 -3 -36 -39 -33 -47 12 -31 20 7 52 13 71 14 l33 0 -32
-32 c-17 -18 -36 -43 -41 -56 -12 -31 -11 -102 1 -102 6 0 10 4 10 8 0 14 73
92 87 92 7 0 13 -8 13 -17 0 -15 -2 -16 -10 -3 -8 13 -10 13 -10 -2 0 -9 5
-20 10 -23 6 -3 10 -19 10 -35 0 -15 3 -30 8 -33 4 -2 1 -2 -5 -1 -18 5 -16
-4 7 -33 18 -23 20 -24 20 -6 0 16 9 22 37 26 20 4 38 5 39 4 1 -1 4 -12 8
-23 5 -18 2 -23 -21 -28 -15 -4 -115 -38 -221 -77 -177 -66 -195 -70 -223 -59
-29 12 -30 14 -23 58 l7 46 -26 -17 -26 -17 -28 48 c-39 66 -38 150 4 230 37
74 66 86 128 53 24 -13 46 -29 49 -37 8 -22 33 -16 39 9 31 130 4 259 -70 329
-37 35 -93 58 -143 58 l-40 0 15 36 c23 55 19 89 -11 113 -15 12 -37 21 -49
21 -41 0 -110 -31 -170 -75 -33 -25 -63 -45 -66 -45 -4 0 -23 7 -42 15 -57 24
-116 19 -183 -15 -32 -16 -69 -30 -81 -30 -29 0 -53 -26 -53 -57 0 -14 -12
-51 -27 -81 -35 -72 -36 -156 -3 -225 13 -28 19 -52 14 -57 -12 -12 -109 -28
-137 -23 -25 5 -53 53 -36 63 6 4 4 11 -6 20 -8 7 -18 10 -22 6 -3 -3 -1 -6 5
-6 7 0 12 -5 12 -10 0 -7 -7 -7 -20 0 -11 6 -18 15 -15 20 3 5 -7 7 -22 4 -23
-3 -25 -2 -10 7 36 22 65 20 160 -7 17 -5 18 -4 3 24 -19 36 -53 62 -81 62
-15 -1 -13 -4 10 -14 41 -18 61 -42 35 -42 -10 0 -16 4 -14 8 3 4 -7 13 -21
18 -31 12 -78 3 -68 -13 4 -6 0 -8 -10 -4 -10 3 -17 2 -17 -3 0 -6 -5 -10 -11
-10 -6 0 -8 9 -4 21 5 16 3 20 -6 16 -15 -5 -15 -7 -5 -47 5 -21 4 -20 -8 5
-8 16 -11 36 -8 44 4 10 1 12 -9 6 -12 -7 -12 -6 -1 7 13 17 7 48 -11 48 -6 0
-7 3 -4 7 4 3 -5 15 -20 25 -19 12 -23 18 -12 18 24 0 67 -47 72 -78 l4 -27 2
28 c2 44 -47 87 -99 87 l-42 0 31 -39 c37 -47 40 -65 9 -56 -17 5 -19 4 -9 -3
10 -7 4 -10 -23 -10 -20 0 -33 4 -30 9 10 16 -13 9 -40 -12 -23 -18 -38 -47
-18 -36 4 3 17 1 28 -3 26 -10 37 -46 20 -63 -32 -32 -52 -108 -24 -91 7 5 19
9 28 10 8 1 22 4 31 8 9 4 21 1 27 -6 8 -10 2 -39 -22 -114 -29 -85 -42 -137
-72 -282 -4 -21 -5 -22 -23 -5 -17 16 -19 32 -19 126 0 59 2 107 5 107 2 0 15
-12 28 -26 l25 -27 0 24 c0 14 -8 35 -17 48 l-16 24 32 -6 c30 -6 31 -5 20 14
-6 12 -20 24 -30 26 -18 5 -19 7 -4 23 14 16 14 18 -1 24 -16 6 -44 -9 -42
-22 2 -20 -5 -21 -32 -7 -37 19 -64 19 -80 0 -10 -12 -9 -15 7 -15 31 0 33 -9
7 -35 -25 -25 -31 -45 -15 -45 6 0 13 5 16 10 3 6 18 9 33 9 18 -1 21 -3 9 -6
-11 -3 -16 -11 -13 -19 3 -9 1 -12 -4 -9 -12 8 -13 -15 -1 -34 7 -12 13 -7 27
22 10 20 22 37 27 37 13 0 4 -157 -9 -170 -9 -9 -30 14 -83 84 -40 53 -79 96
-87 96 -11 0 -14 16 -14 67 0 36 -2 64 -6 61 -5 -6 -11 -85 -13 -180 -1 -32
-5 -58 -11 -58 -6 0 -10 60 -10 160 0 90 4 160 9 160 5 0 11 -6 14 -12 3 -9
11 -7 28 8 17 15 257 182 285 198 1 1 4 17 7 37 4 34 2 37 -25 43 -26 5 -30
10 -26 31 3 14 1 25 -3 25 -5 0 -9 -4 -9 -9 0 -18 -67 -19 -132 -3 -38 9 -68
20 -68 25 0 5 6 7 13 4 9 -3 13 3 13 16 -1 13 6 23 18 25 15 3 18 -1 14 -21
l-5 -25 34 16 c18 9 33 19 33 23 0 4 9 5 20 2 22 -6 24 -11 10 -33 -6 -10 -10
-11 -10 -2 0 6 -4 12 -10 12 -5 0 -7 -7 -3 -17 5 -14 1 -15 -28 -10 -24 5 -29
4 -17 -3 22 -14 66 -9 73 8 3 8 13 12 25 9 16 -4 17 -2 7 14 -6 10 -15 19 -18
19 -4 0 -10 12 -14 27 -8 33 -24 55 -35 48 -5 -3 -6 3 -3 13 6 24 59 47 77 33
7 -6 16 -8 19 -4 4 3 7 1 7 -5 0 -7 -4 -12 -10 -12 -5 0 -10 -6 -10 -14 0 -8
-10 -22 -22 -30 l-22 -16 22 0 c13 0 21 4 18 9 -3 5 1 14 9 21 13 11 14 4 10
-51 -4 -58 -3 -60 5 -19 5 25 9 64 9 87 1 37 -2 43 -24 49 -40 10 -38 11 82
94 204 141 413 225 658 265 115 18 385 13 508 -10z m735 -363 c25 -15 28 -34
8 -51 -11 -9 -20 -9 -35 -2 -13 7 -22 8 -26 1 -3 -5 3 -10 14 -10 15 0 21 -7
21 -22 0 -17 3 -19 9 -10 7 11 9 11 14 -2 7 -19 3 -19 -41 -7 -33 10 -41 4
-20 -17 9 -9 9 -12 0 -12 -7 0 -12 -7 -12 -15 0 -12 -7 -9 -25 10 -14 14 -29
25 -32 25 -7 0 19 -33 35 -43 22 -14 14 -37 -14 -37 -21 0 -25 4 -21 20 3 11
2 18 -3 15 -7 -4 -20 74 -20 126 0 23 6 27 43 35 55 12 77 11 105 -4z m-998
-39 c-14 -9 -46 -36 -72 -60 -45 -41 -94 -64 -53 -24 33 31 129 101 140 101 5
0 -2 -8 -15 -17z m1046 -36 c1 -19 -4 -27 -16 -27 -23 0 -34 28 -19 47 17 20
34 10 35 -20z m-2098 -4 c7 -22 -30 -28 -44 -8 -12 16 -14 17 -14 3 0 -9 5
-20 10 -23 8 -5 7 -12 -1 -22 -11 -13 -14 -12 -21 7 -12 32 8 62 39 58 15 -2
28 -9 31 -15z m2132 2 c10 -13 9 -15 -8 -15 -15 0 -20 5 -16 15 4 8 7 15 9 15
1 0 8 -7 15 -15z m-1255 -9 c19 -8 35 -20 35 -25 0 -17 -19 -13 -50 9 l-28 20
-5 -22 c-5 -18 -8 -19 -21 -8 -13 10 -16 10 -16 -3 0 -9 5 -19 10 -22 15 -9
12 -25 -5 -25 -9 0 -20 11 -25 24 -5 13 -13 27 -19 30 -14 9 -69 -20 -110 -58
-19 -17 -28 -22 -21 -11 21 34 70 68 124 87 63 21 87 22 131 4z m1293 -47 c3
-24 -2 -27 -54 -42 -31 -9 -61 -14 -66 -11 -5 3 -15 1 -22 -5 -8 -7 -18 -11
-22 -10 -5 1 -16 0 -24 -4 -32 -12 -60 -15 -60 -6 0 5 11 9 25 9 14 0 28 6 31
14 3 9 12 12 21 9 11 -4 14 -2 9 5 -4 7 -4 22 -1 33 6 17 9 19 16 8 8 -12 11
-12 19 1 14 21 12 3 -2 -23 -10 -20 -10 -21 5 -8 10 7 17 20 17 27 0 8 9 14
19 14 11 0 22 4 26 9 3 6 18 9 33 8 21 -2 28 -8 30 -28z m-1298 -23 c-16 -20
-36 -20 -44 -1 -3 9 0 15 9 15 8 0 15 8 15 17 0 16 1 16 17 1 13 -14 14 -20 3
-32z m-106 -2 c11 -16 25 -24 38 -22 26 4 33 -12 15 -36 -11 -16 -17 -17 -36
-6 -19 9 -51 64 -51 85 0 14 19 2 34 -21z m116 -34 c-31 -39 -50 -56 -50 -46
0 7 71 86 77 86 3 0 -10 -18 -27 -40z m455 19 c84 -40 136 -167 120 -295 l-7
-55 -26 27 c-67 67 -151 58 -251 -25 -71 -60 -114 -73 -194 -62 -5 0 -5 6 -2
11 3 6 -1 10 -9 10 -18 0 -56 -47 -56 -69 0 -14 2 -14 10 -1 5 8 10 12 12 10
2 -3 18 -34 35 -70 43 -86 84 -134 136 -159 55 -26 107 -27 157 -1 48 25 51
13 9 -35 -35 -40 -77 -65 -109 -65 -34 0 -96 37 -131 79 -43 50 -93 147 -83
162 5 8 3 9 -6 4 -10 -6 -12 -4 -7 9 4 10 3 15 -3 11 -12 -8 -40 37 -42 66 -2
44 2 48 52 74 58 29 70 58 70 173 0 89 15 120 75 162 94 65 170 77 250 39z
m895 -14 c7 -9 11 -17 9 -19 -4 -4 -288 -69 -341 -79 -24 -4 -28 -1 -28 19 0
17 7 24 33 29 53 10 220 46 252 55 46 12 61 11 75 -5z m-2252 -26 c120 -29
132 -34 132 -54 0 -21 -2 -22 -52 -13 -61 11 -241 57 -247 63 -5 5 19 35 28
35 3 0 66 -14 139 -31z m75 4 c-7 -2 -21 -2 -30 0 -10 3 -4 5 12 5 17 0 24 -2
18 -5z m924 -76 l-6 -32 14 30 c15 32 19 26 9 -12 -8 -29 -20 -29 -49 -1 -25
24 -17 43 18 45 16 2 18 -3 14 -30z m-28 -41 c60 -62 54 -187 -10 -201 -34 -8
-79 -58 -79 -88 0 -12 9 -37 20 -54 21 -35 18 -55 -13 -90 -49 -55 -127 -3
-127 85 0 30 8 59 21 81 19 32 20 37 6 60 -38 66 -28 160 21 185 15 8 36 23
46 35 30 33 76 28 115 -13z m871 -10 c0 -2 -7 -6 -15 -10 -8 -3 -15 -1 -15 4
0 6 7 10 15 10 8 0 15 -2 15 -4z m-1600 -56 c0 -5 -4 -10 -9 -10 -6 0 -13 5
-16 10 -3 6 1 10 9 10 9 0 16 -4 16 -10z m-40 -55 c11 -13 10 -14 -4 -9 -9 3
-16 10 -16 15 0 13 6 11 20 -6z m545 -17 c6 -30 8 -49 6 -71 -1 -14 -6 -17
-23 -12 l-23 6 23 -14 c12 -7 19 -16 15 -21 -4 -4 0 -4 10 0 13 5 16 2 11 -10
-4 -11 -13 -15 -25 -11 -21 7 -27 -10 -6 -18 9 -4 9 -7 0 -16 -7 -6 -11 -8 -8
-5 2 4 -2 13 -10 20 -8 8 -12 22 -9 32 2 9 -1 6 -8 -7 -10 -19 -10 -25 0 -29
6 -2 12 -13 12 -23 0 -11 4 -18 9 -15 9 6 21 -26 21 -58 0 -16 -2 -15 -20 5
-10 13 -19 18 -20 12 0 -7 4 -13 9 -13 5 0 12 -11 15 -25 4 -14 11 -25 17 -25
6 0 7 4 4 10 -3 6 1 7 9 4 9 -3 16 -10 16 -16 0 -5 -4 -6 -10 -3 -5 3 -10 1
-10 -5 0 -7 7 -9 15 -6 22 8 54 -14 47 -33 -5 -14 -3 -14 11 -2 10 8 24 10 34
6 32 -14 73 -14 73 1 0 7 -4 16 -10 19 -5 3 -10 1 -10 -4 0 -6 -5 -11 -12 -11
-6 0 -3 8 7 20 23 26 31 20 46 -41 7 -28 19 -54 26 -56 7 -3 13 -9 13 -15 0
-5 -4 -6 -10 -3 -12 8 -13 -5 -1 -24 5 -7 13 -11 19 -8 5 4 18 -3 28 -14 15
-17 16 -22 4 -29 -8 -5 -17 -7 -21 -4 -4 2 -10 -2 -12 -8 -4 -9 -8 -9 -14 -3
-8 10 -64 38 -97 49 -15 5 -16 9 -6 21 15 18 -1 20 -18 3 -8 -8 -15 -8 -26 2
-9 7 -13 16 -10 21 3 5 2 9 -3 8 -25 -4 -35 3 -30 21 3 11 1 17 -4 14 -13 -8
-42 24 -36 40 4 9 0 12 -13 9 -11 -3 -21 -12 -24 -22 -3 -9 -3 4 0 28 6 53
-11 81 -32 54 -13 -16 -14 -15 -8 12 4 17 11 38 15 47 6 11 4 22 -7 33 -15 14
-15 23 -4 73 7 31 13 61 14 66 4 16 36 15 36 -2 0 -8 3 -13 6 -9 9 8 -6 48
-16 42 -4 -3 -6 4 -3 15 7 27 21 25 28 -2z m1050 -18 c-3 -5 -11 -10 -16 -10
-6 0 -7 5 -4 10 3 6 11 10 16 10 6 0 7 -4 4 -10z m-1556 -30 c24 -17 63 -35
85 -41 58 -16 149 -27 165 -21 9 4 12 1 7 -7 -5 -8 -34 -11 -88 -10 -78 2 -83
3 -147 47 -75 51 -89 62 -75 62 5 0 29 -14 53 -30z m1521 20 c0 -5 -4 -10 -10
-10 -5 0 -10 5 -10 10 0 6 5 10 10 10 6 0 10 -4 10 -10z m-103 -51 c-23 -19
-36 -37 -33 -46 3 -8 2 -11 -3 -8 -5 3 -12 -3 -14 -12 -2 -10 -3 -4 0 12 4 32
48 83 73 84 8 1 -2 -13 -23 -30z m-884 -2 c3 -8 -1 -14 -8 -14 -7 0 -11 6 -8
14 3 7 6 13 8 13 2 0 5 -6 8 -13z m458 -24 c-12 -20 -14 -14 -5 12 4 9 9 14
11 11 3 -2 0 -13 -6 -23z m-1521 -11 l45 -7 3 -49 c2 -27 0 -52 -5 -56 -9 -8
-147 11 -158 22 -4 4 1 30 11 57 15 42 21 50 38 45 12 -2 41 -8 66 -12z m2202
-42 c10 0 18 -4 18 -10 0 -5 -20 -10 -44 -10 -40 0 -46 3 -60 32 -25 48 -19
52 26 19 23 -17 50 -31 60 -31z m582 13 c9 -26 16 -50 16 -54 0 -14 -72 -22
-91 -10 -25 15 -30 14 -23 -4 4 -10 0 -15 -12 -15 -11 0 -43 -3 -71 -6 l-53
-7 0 60 0 60 73 10 c39 6 88 11 109 12 35 1 37 -1 52 -46z m-704 -18 c7 -24
16 -42 21 -40 4 3 11 0 15 -6 4 -7 3 -9 -4 -5 -5 3 -12 2 -14 -2 -1 -5 -16
-12 -32 -16 -29 -7 -29 -7 -23 31 4 21 7 51 7 66 0 40 15 26 30 -28z m-573 13
c-3 -8 -6 -5 -6 6 -1 11 2 17 5 13 3 -3 4 -12 1 -19z m-1022 -94 c-14 -55 -31
-158 -37 -231 -10 -109 -14 -128 -25 -115 -13 18 -18 84 -7 95 4 4 8 21 10 39
5 53 12 89 27 151 8 32 15 60 15 63 1 13 36 103 39 100 2 -2 -8 -48 -22 -102z
m78 76 c14 -11 30 -20 36 -20 6 0 11 -3 11 -7 0 -5 -17 -9 -37 -11 -45 -3 -50
-7 -32 -28 23 -28 111 -64 158 -64 55 0 146 48 184 97 18 24 27 31 27 19 0
-27 -25 -79 -49 -100 -30 -27 -26 -36 13 -36 l34 0 -5 -44 c-6 -46 8 -66 31
-47 11 9 15 5 20 -22 10 -56 56 -84 56 -35 0 24 17 23 25 -1 3 -11 22 -33 41
-50 l34 -31 -6 -71 c-4 -39 -13 -77 -21 -84 -8 -9 -9 -16 -3 -20 15 -9 12 -51
-5 -68 -18 -19 -84 -19 -102 -1 -7 7 -21 10 -30 7 -9 -4 -21 1 -29 11 -7 10
-17 15 -22 12 -15 -9 -62 18 -62 36 0 27 -41 34 -61 10 l-16 -21 -34 30 c-27
24 -39 28 -65 23 -18 -3 -35 -1 -38 5 -4 6 -15 11 -24 11 -13 0 -13 -2 4 -14
23 -17 16 -27 -14 -19 -13 3 -25 16 -29 32 -7 27 -30 56 -46 56 -5 0 -20 20
-33 45 l-24 45 24 3 c25 3 50 -16 72 -54 6 -10 21 -20 33 -22 11 -2 21 -10 21
-18 0 -8 5 -14 10 -14 21 0 -9 38 -35 44 -14 4 -25 12 -25 20 0 19 -35 56 -53
56 -34 0 -43 11 -40 43 15 129 58 317 73 317 4 0 19 -9 33 -20z m-278 -10 c3
-5 1 -10 -4 -10 -6 0 -11 5 -11 10 0 6 2 10 4 10 3 0 8 -4 11 -10z m545 -4
c-29 -36 -185 -90 -173 -61 4 13 49 26 91 27 13 0 20 3 17 6 -4 4 11 14 32 24
48 21 48 21 33 4z m667 -33 c-3 -10 -5 -4 -5 12 0 17 2 24 5 18 2 -7 2 -21 0
-30z m-814 16 c13 -1 5 -5 -17 -10 -21 -5 -41 -7 -44 -5 -9 10 11 27 25 22 8
-3 24 -6 36 -7z m860 -134 c18 -25 18 -28 3 -15 -22 17 -46 71 -45 97 0 10 5
2 11 -17 5 -19 19 -48 31 -65z m597 70 c0 -8 -2 -15 -4 -15 -2 0 -6 7 -10 15
-3 8 -1 15 4 15 6 0 10 -7 10 -15z m-1875 -147 c60 -80 159 -210 218 -289 60
-79 118 -155 128 -169 12 -16 15 -26 8 -29 -15 -5 -28 10 -98 109 -33 47 -64
90 -68 95 -5 6 -64 87 -132 180 -68 94 -140 190 -159 214 -20 24 -29 42 -21
39 7 -2 63 -70 124 -150z m2200 142 c-3 -5 -13 -10 -21 -10 -8 0 -12 5 -9 10
3 6 13 10 21 10 8 0 12 -4 9 -10z m-1064 -37 c13 -15 16 -21 7 -14 -15 11 -18
11 -18 1 0 -19 -10 -6 -15 19 -5 27 -3 27 26 -6z m44 17 c3 -5 2 -10 -4 -10
-5 0 -13 5 -16 10 -3 6 -2 10 4 10 5 0 13 -4 16 -10z m605 -84 c-80 -34 -167
-74 -195 -87 -43 -21 -60 -23 -125 -19 l-75 5 205 76 c113 42 212 79 220 82 8
3 38 6 65 6 50 1 49 0 -95 -63z m170 15 c-63 -27 -155 -67 -204 -90 -49 -22
-102 -41 -117 -41 -16 0 -29 -4 -29 -10 0 -5 11 -10 24 -10 21 0 24 -5 28 -47
3 -27 3 -53 1 -58 -4 -12 -49 -13 -60 -2 -3 4 -12 2 -20 -4 -10 -9 -13 -8 -14
2 0 8 -4 35 -8 62 -7 45 -7 47 16 47 24 0 32 15 11 22 -6 2 76 43 183 91 167
74 202 86 249 86 l55 0 -115 -48z m335 34 c-16 -7 -84 -36 -150 -64 -146 -60
-253 -110 -240 -111 11 0 104 34 152 56 18 8 61 25 95 38 35 14 94 38 132 55
38 17 71 29 74 26 3 -2 11 -46 18 -97 l12 -92 -34 -39 c-19 -21 -37 -51 -41
-68 -3 -16 -10 -32 -14 -35 -5 -3 -9 -17 -8 -32 l1 -27 7 25 7 25 6 -27 c3
-16 1 -28 -3 -28 -5 0 -9 -15 -9 -34 0 -34 20 -62 35 -48 4 4 5 -11 2 -32 -5
-30 -2 -42 11 -52 23 -18 75 -19 67 -1 -4 6 1 3 9 -7 9 -11 16 -35 16 -53 0
-18 0 -36 1 -40 1 -4 -12 -14 -28 -23 -44 -23 -163 -94 -297 -176 -66 -41
-121 -72 -123 -71 -1 2 -10 49 -19 106 -16 101 -16 103 4 124 23 25 46 77 37
86 -3 3 -15 0 -25 -7 -29 -17 -38 -15 -12 3 12 9 34 37 49 63 14 26 34 56 44
67 9 11 19 29 22 40 4 18 5 18 6 -2 1 -16 6 -21 17 -16 8 3 13 12 10 19 -3 9
1 11 12 7 9 -3 14 -3 10 2 -10 10 10 35 28 35 8 0 14 -7 14 -15 0 -18 4 -18
33 -3 12 6 29 14 37 18 13 6 28 60 17 60 -19 0 -52 -29 -52 -44 0 -11 -5 -21
-12 -23 -8 -3 -11 5 -8 26 2 17 -1 31 -6 31 -5 0 -9 -8 -9 -18 0 -11 -8 -18
-22 -19 -11 -1 -24 -6 -27 -11 -9 -15 -51 -25 -51 -13 0 6 -5 11 -11 11 -5 0
-8 -4 -5 -8 6 -10 -38 -52 -54 -52 -5 0 -2 20 8 45 15 41 15 46 1 61 -14 14
-20 14 -58 -2 -23 -9 -44 -14 -48 -11 -3 4 -11 45 -18 93 -7 47 -17 90 -22 95
-5 5 -44 12 -87 16 -92 7 -102 -1 129 104 l170 78 115 0 c107 1 113 0 85 -14z
m-1080 -33 c2 -12 0 -22 -6 -22 -5 0 -9 10 -10 23 -1 21 -1 21 -8 -3 -4 -14
-10 -20 -13 -15 -3 6 -2 21 3 34 11 27 27 19 34 -17z m-1347 -22 c13 0 22 -6
22 -15 0 -8 -7 -15 -16 -15 -8 0 -12 5 -8 11 4 8 -1 9 -17 3 -44 -14 -73 -10
-77 10 -4 17 0 18 34 13 22 -4 49 -7 62 -7z m25 -50 c26 0 37 -4 37 -15 0 -18
-23 -19 -72 -2 -44 15 -65 33 -28 24 14 -4 42 -7 63 -7z m1457 -24 c0 -3 -4
-8 -10 -11 -5 -3 -10 -1 -10 4 0 6 5 11 10 11 6 0 10 -2 10 -4z m-1385 -36 c0
-11 -14 -15 -60 -17 -46 -1 -54 1 -35 7 23 9 22 9 -7 6 -30 -2 -40 3 -29 15 2
2 33 4 68 4 49 0 63 -3 63 -15z m2491 -15 c10 -16 14 -34 10 -50 -7 -26 -20
-32 -31 -15 -4 6 -19 2 -38 -12 -21 -14 -27 -16 -19 -6 8 10 11 22 7 27 -3 7
0 8 10 5 11 -5 14 -2 9 10 -3 9 -1 16 5 16 6 0 11 -6 11 -12 0 -7 5 -5 11 5 8
14 8 22 -1 30 -10 9 -12 8 -7 -6 4 -10 3 -16 -2 -12 -14 8 -9 45 6 45 7 0 20
-11 29 -25z m-1043 -13 c-2 -6 8 -14 22 -18 14 -3 23 -10 20 -14 -3 -5 -1 -11
5 -15 11 -7 4 -25 -10 -25 -5 0 -12 9 -15 20 -4 11 -15 20 -26 20 -11 0 -17
-4 -14 -10 3 -5 1 -10 -5 -10 -6 0 -8 -5 -5 -10 4 -7 13 -6 27 1 18 10 20 9
15 -5 -5 -12 0 -16 17 -16 13 0 27 7 30 16 7 17 -10 54 -24 54 -6 0 -10 5 -10
10 0 6 9 10 20 10 13 0 18 -5 14 -15 -3 -8 5 -25 20 -38 32 -30 34 -81 6 -117
-17 -21 -19 -22 -14 -5 5 18 4 18 -6 3 -6 -10 -15 -18 -20 -18 -5 0 -7 8 -3
18 3 9 3 14 -2 10 -4 -4 -14 -3 -22 3 -19 16 -16 -1 7 -36 13 -21 16 -33 9
-42 -6 -6 -9 -20 -7 -30 3 -13 10 -6 22 23 19 47 53 62 83 37 10 -8 12 -11 4
-7 -11 5 -13 2 -9 -14 7 -26 -13 -45 -37 -35 -13 4 -16 3 -11 -5 4 -7 4 -13
-1 -13 -54 -8 -61 -7 -66 11 -3 10 -1 22 3 27 5 4 2 17 -7 28 -15 20 -15 20
-8 -2 4 -14 2 -23 -4 -23 -6 0 -12 8 -12 18 -2 22 -3 31 -12 67 -8 34 -16 77
-24 119 -4 18 -1 31 8 37 18 12 45 6 42 -9z m92 -2 c-3 -5 -2 -10 4 -10 5 0
11 6 14 13 2 6 8 -10 12 -38 16 -105 18 -109 46 -95 11 6 19 7 19 1 0 -5 -7
-12 -16 -15 -10 -4 -13 -13 -9 -28 6 -22 6 -22 -15 2 -17 20 -19 21 -14 5 4
-12 3 -17 -2 -12 -5 5 -11 38 -14 73 -3 35 -9 64 -14 63 -11 -1 -26 21 -26 39
0 6 5 12 11 12 5 0 7 -4 4 -10z m269 0 c16 0 18 -2 7 -9 -17 -11 -6 -31 17
-31 12 0 13 -3 5 -8 -8 -5 -9 -12 -2 -22 8 -13 10 -13 18 -1 5 8 16 11 25 8
10 -4 16 -1 16 8 0 7 -14 16 -31 20 -17 4 -28 9 -25 12 3 3 19 1 35 -5 25 -9
31 -8 31 3 0 7 -7 16 -15 18 -11 4 -10 4 2 3 28 -2 24 -58 -5 -71 -25 -11 -25
-27 1 -31 9 -1 15 2 12 6 -3 5 -1 11 5 15 10 6 16 -14 23 -73 4 -37 -4 -43
-78 -56 l-40 -8 19 21 c12 13 14 21 7 21 -8 0 -9 5 -3 17 12 20 -3 78 -30 116
-14 19 -28 27 -49 27 -20 0 -29 5 -29 16 0 13 7 15 31 10 17 -3 41 -6 53 -6z
m-1775 -16 c10 -9 -11 -16 -64 -21 -42 -4 -59 -2 -65 8 -5 7 -6 17 -4 21 5 8
123 0 133 -8z m1086 -2 c-3 -3 -11 0 -18 7 -9 10 -8 11 6 5 10 -3 15 -9 12
-12z m129 -14 c39 -1 43 -2 17 -5 -25 -3 -31 -7 -21 -13 32 -20 1 -16 -55 7
-43 17 -51 22 -26 18 18 -3 57 -6 85 -7z m90 6 c-6 -3 -9 -17 -7 -32 4 -26 4
-26 -11 -8 -23 28 -20 46 7 45 12 0 17 -3 11 -5z m-1311 -34 c36 0 57 -4 57
-11 0 -8 -17 -10 -57 -5 -34 3 -52 3 -45 -3 10 -6 7 -10 -13 -15 -15 -4 -30
-5 -33 -1 -3 3 2 5 11 5 10 0 17 5 17 10 0 6 -7 10 -16 8 -10 -2 -19 3 -22 11
-3 11 1 12 19 8 13 -4 50 -7 82 -7z m1097 -33 c75 -30 206 -102 216 -118 8
-13 42 -11 47 4 7 21 15 4 19 -43 3 -44 2 -45 -24 -42 -14 1 -42 17 -60 35
-41 39 -168 131 -173 125 -7 -7 10 -24 58 -58 52 -37 56 -46 28 -55 -35 -11
-112 -105 -146 -177 l-33 -71 -46 79 c-25 43 -46 82 -46 86 0 5 -5 8 -11 8 -7
0 -8 -7 -4 -17 4 -10 9 -28 10 -41 2 -12 12 -32 24 -45 11 -12 42 -51 68 -87
46 -61 51 -65 85 -62 28 2 39 -2 47 -17 16 -29 101 -81 133 -81 21 0 28 5 28
20 0 22 10 26 27 9 11 -11 1 -84 -19 -133 l-11 -29 -91 6 c-153 8 -335 92
-430 197 -42 47 -44 59 -12 89 53 50 86 175 86 326 0 100 6 123 34 128 43 8
123 -6 196 -36z m170 33 c0 -5 -4 -10 -10 -10 -5 0 -10 5 -10 10 0 6 5 10 10
10 6 0 10 -4 10 -10z m470 4 c0 -24 -50 -104 -91 -145 -31 -31 -48 -56 -45
-65 3 -8 2 -13 -3 -10 -4 3 -16 -3 -26 -14 -32 -35 -129 -56 -238 -52 -74 3
-47 22 31 22 95 0 172 22 197 57 11 15 43 49 71 76 31 29 58 65 69 92 9 25 21
45 26 45 5 0 9 -2 9 -6z m634 -9 c-4 -8 -11 -15 -16 -15 -6 0 -5 6 2 15 7 8
14 15 16 15 2 0 1 -7 -2 -15z m36 -30 c-7 -8 -16 -13 -20 -10 -12 8 -41 -6
-34 -16 3 -5 0 -9 -5 -9 -6 0 -11 6 -11 14 0 15 21 26 51 26 10 0 19 5 19 12
0 6 3 8 6 5 4 -4 1 -13 -6 -22z m-2382 -2 c-10 -2 -26 -2 -35 0 -10 3 -2 5 17
5 19 0 27 -2 18 -5z m106 -19 c3 -8 2 -12 -4 -9 -6 3 -10 10 -10 16 0 14 7 11
14 -7z m2366 -20 c0 -43 -18 -63 -72 -79 -63 -18 -59 -18 -51 1 3 8 12 13 19
10 8 -3 11 0 7 10 -6 17 8 19 25 2 8 -8 15 -8 27 2 17 14 20 30 5 30 -5 0 -10
-7 -10 -15 0 -18 -17 -20 -22 -3 -6 18 14 36 34 30 14 -3 18 2 18 22 0 16 4
25 10 21 6 -3 10 -17 10 -31z m-2456 20 c53 -8 66 -34 16 -34 -16 0 -30 4 -30
8 0 5 -6 9 -13 9 -7 0 -25 3 -41 7 -17 4 -25 3 -22 -3 4 -5 2 -12 -4 -16 -5
-3 -10 -4 -10 -1 0 2 -3 11 -6 20 -7 18 27 21 110 10z m1586 -29 c0 -17 -27
-32 -37 -21 -4 3 2 13 13 21 24 18 24 18 24 0z m-1500 -32 c12 -11 -29 -21
-93 -21 -48 -1 -67 2 -57 8 13 8 12 10 -3 10 -10 0 -16 3 -13 8 4 8 157 4 166
-5z m2147 -5 c-3 -8 -6 -5 -6 6 -1 11 2 17 5 13 3 -3 4 -12 1 -19z m-295 -31
c-12 -13 -19 -27 -15 -31 4 -4 -1 -4 -11 0 -13 5 -17 4 -12 -4 4 -7 -6 -18
-24 -27 -17 -9 -30 -11 -30 -5 0 5 7 10 16 10 8 0 13 4 10 9 -4 5 -24 5 -48
-1 -57 -12 -143 -12 -165 1 -14 8 -1 11 52 11 51 0 92 8 150 29 100 36 104 36
77 8z m-1828 -13 c23 -9 20 -34 -4 -34 -11 0 -20 5 -20 10 0 6 -5 10 -11 10
-5 0 -7 -6 -3 -12 6 -10 4 -10 -7 0 -16 14 -69 16 -69 2 0 -5 -9 -10 -20 -10
-13 0 -20 7 -20 20 0 18 7 20 69 20 38 0 76 -3 85 -6z m2346 -27 c0 -7 -7 -22
-16 -33 -12 -14 -14 -15 -11 -3 4 13 0 16 -16 13 -16 -3 -15 -1 6 8 15 7 27
15 27 20 0 4 2 8 5 8 3 0 5 -6 5 -13z m-2436 -34 c-5 -5 -12 -12 -15 -16 -3
-5 -9 -2 -12 7 -5 12 0 16 15 16 12 0 17 -3 12 -7z m226 -39 c0 -9 -44 14 -48
25 -3 8 5 7 22 -4 14 -10 26 -19 26 -21z m-65 -8 c85 -39 187 -111 276 -195
46 -44 80 -80 74 -80 -5 -1 -28 16 -50 37 -77 73 -116 100 -136 95 -21 -6 -26
-23 -7 -23 6 0 9 -3 6 -6 -7 -6 -48 17 -48 28 0 4 6 5 14 2 10 -4 13 0 11 13
-2 10 -4 20 -4 23 -1 3 -6 -2 -11 -10 -8 -13 -10 -13 -10 2 0 21 -32 44 -145
103 -66 34 -81 45 -56 41 19 -4 58 -17 86 -30z m1065 24 c0 -5 -4 -10 -10 -10
-5 0 -10 5 -10 10 0 6 5 10 10 10 6 0 10 -4 10 -10z m-1072 -66 l27 -27 -32
22 c-18 12 -33 24 -33 27 0 10 13 2 38 -22z m282 -31 c53 -56 107 -127 130
-175 10 -21 10 -21 -10 2 -11 14 -38 48 -59 75 -21 28 -54 64 -72 81 -54 48
-74 74 -59 74 8 0 39 -26 70 -57z m-300 12 c7 -8 8 -15 2 -15 -5 0 -15 7 -22
15 -7 8 -8 15 -2 15 5 0 15 -7 22 -15z m1665 -2 c10 4 14 3 9 -4 -4 -8 1 -9
17 -5 l24 7 -24 -20 c-27 -25 -53 -28 -45 -6 4 9 0 15 -10 15 -17 0 -21 12 -9
23 4 4 10 2 14 -4 4 -7 14 -9 24 -6z m-635 -68 c0 -8 -4 -15 -10 -15 -5 0 -7
7 -4 15 4 8 8 15 10 15 2 0 4 -7 4 -15z m-894 -36 c19 -22 19 -22 -3 -10 -24
12 -39 31 -25 31 5 0 17 -10 28 -21z m1171 15 c-3 -3 -12 -4 -19 -1 -8 3 -5 6
6 6 11 1 17 -2 13 -5z m33 2 c0 -3 -4 -8 -10 -11 -5 -3 -10 -1 -10 4 0 6 5 11
10 11 6 0 10 -2 10 -4z m-233 -12 c-3 -3 -12 -4 -19 -1 -8 3 -5 6 6 6 11 1 17
-2 13 -5z m583 2 c0 -3 -4 -8 -10 -11 -5 -3 -10 -1 -10 4 0 6 5 11 10 11 6 0
10 -2 10 -4z m-153 -12 c-3 -3 -12 -4 -19 -1 -8 3 -5 6 6 6 11 1 17 -2 13 -5z
m101 -1 c-10 -2 -26 -2 -35 0 -10 3 -2 5 17 5 19 0 27 -2 18 -5z m-271 -9 c-3
-3 -12 -4 -19 -1 -8 3 -5 6 6 6 11 1 17 -2 13 -5z m-150 -10 c-3 -3 -12 -4
-19 -1 -8 3 -5 6 6 6 11 1 17 -2 13 -5z m210 0 c-3 -3 -12 -4 -19 -1 -8 3 -5
6 6 6 11 1 17 -2 13 -5z m171 -1 c-10 -2 -28 -2 -40 0 -13 2 -5 4 17 4 22 1
32 -1 23 -4z m-463 -21 c-3 -3 -11 0 -18 7 -9 10 -8 11 6 5 10 -3 15 -9 12
-12z m190 8 c3 -5 1 -10 -4 -10 -6 0 -11 5 -11 10 0 6 2 10 4 10 3 0 8 -4 11
-10z m-131 -25 c16 -12 17 -15 4 -15 -8 0 -21 7 -28 15 -16 19 -1 19 24 0z
m566 -35 c0 -12 -5 -17 -14 -14 -9 3 -15 -5 -20 -27 -4 -21 -10 -29 -20 -26
-10 4 -12 0 -9 -14 7 -26 19 -24 27 3 5 22 6 23 21 3 16 -20 16 -20 12 2 -3
13 -1 26 4 29 5 3 9 -10 10 -28 0 -18 2 -41 4 -52 3 -16 -1 -17 -43 -11 -26 4
-51 11 -57 17 -7 7 -1 8 20 4 28 -7 29 -6 10 7 -11 9 -23 13 -27 11 -4 -3 -5
2 -2 11 5 13 2 15 -22 9 -16 -4 -38 -10 -49 -14 -21 -8 -16 -13 30 -24 11 -2
4 -4 -15 -3 -24 1 -35 7 -35 17 0 8 -6 20 -13 25 -10 8 1 15 44 28 46 14 59
15 66 5 5 -9 8 -7 9 7 0 11 3 14 6 8 7 -18 23 -16 23 3 0 23 20 55 31 49 5 -4
9 -15 9 -25z m-1570 -130 l45 -13 -38 -13 c-42 -15 -73 -18 -360 -40 l-207
-15 -27 31 c-25 30 -29 32 -78 25 -48 -6 -52 -4 -63 20 -16 34 -15 61 1 64 16
3 175 12 357 20 l145 6 90 -36 c50 -21 110 -42 135 -49z m1073 39 c10 -11 31
-19 49 -19 27 0 29 -2 17 -16 -20 -25 -87 -55 -140 -63 -27 -5 -49 -5 -49 -1
0 4 7 27 15 50 8 23 15 53 15 65 0 22 2 23 38 13 20 -5 45 -19 55 -29z m961
31 c69 1 96 -1 92 -9 -4 -6 -2 -11 3 -11 17 0 13 -25 -13 -85 -17 -38 -31 -55
-43 -55 -105 3 -740 63 -778 74 -69 20 -39 19 117 -4 181 -27 193 -26 258 15
117 74 150 87 210 79 30 -3 99 -5 154 -4z m-1580 -9 c9 -14 -18 -72 -31 -67
-18 7 -49 -57 -64 -132 -10 -49 -22 -72 -57 -112 -52 -60 -96 -69 -76 -16 3 9
14 16 23 16 17 0 53 47 70 92 9 23 8 26 -6 21 -14 -6 -15 1 -10 55 6 56 33
142 44 142 3 0 14 -11 25 -25 25 -32 31 -31 45 5 11 29 27 38 37 21z m871 -21
c3 -5 -1 -10 -9 -10 -8 0 -18 5 -21 10 -3 6 1 10 9 10 8 0 18 -4 21 -10z m-48
-6 c-3 -3 -12 -4 -19 -1 -8 3 -5 6 6 6 11 1 17 -2 13 -5z m48 -70 c22 -8 139
-21 260 -29 121 -9 270 -20 330 -25 61 -6 123 -10 138 -10 24 0 27 -3 22 -21
-4 -12 -26 -50 -49 -85 -22 -35 -53 -83 -68 -108 -91 -144 -301 -337 -480
-440 -47 -28 -58 -28 -173 -11 -115 17 -929 28 -988 13 -20 -5 -30 -3 -33 7
-3 7 -17 16 -32 20 -17 4 -22 9 -14 14 9 5 5 14 -12 30 -14 14 -22 30 -19 40
4 12 3 13 -5 3 -6 -9 -18 -11 -36 -6 -20 5 -35 0 -60 -20 -37 -27 -62 -34 -50
-13 4 6 -5 1 -19 -12 -31 -28 -44 -76 -27 -96 9 -11 9 -15 1 -15 -6 0 -11 5
-11 10 0 6 -8 10 -18 10 -21 0 -143 75 -224 137 -132 101 -336 328 -323 360 3
9 0 11 -7 7 -8 -5 -9 -2 -5 10 5 14 3 17 -8 12 -19 -7 -19 -8 5 39 12 23 16
41 10 45 -6 4 -5 20 2 43 10 32 16 37 42 38 98 1 519 40 564 51 45 12 69 12
145 0 50 -7 92 -14 93 -15 1 -1 4 -28 8 -60 7 -62 9 -58 -64 -122 -6 -5 -16
-18 -23 -27 -8 -12 -17 -15 -26 -9 -11 7 -11 16 4 56 16 40 17 52 5 83 -7 21
-17 43 -22 50 -16 18 -46 14 -53 -7 -3 -11 -15 -23 -26 -26 -11 -4 -31 -25
-46 -48 -60 -97 -154 -175 -246 -201 -45 -13 -62 -24 -75 -46 -10 -17 -29 -32
-44 -36 -71 -15 16 -94 105 -94 22 0 22 -18 0 -42 -15 -17 -15 -20 -2 -34 21
-21 140 -9 173 17 13 11 39 49 57 86 42 85 79 143 91 143 16 0 89 -63 85 -74
-4 -11 45 -56 82 -76 34 -17 112 -15 150 4 17 9 36 14 42 10 6 -3 18 1 27 10
67 62 94 79 104 65 8 -11 9 -10 4 4 -5 16 2 17 84 14 50 -2 90 0 90 4 0 11 90
30 136 28 22 -1 46 1 53 5 6 4 30 5 52 1 29 -5 43 -14 51 -31 14 -31 49 -40
90 -23 27 11 32 10 44 -6 19 -26 17 -48 -7 -76 -33 -38 -51 -78 -56 -130 -8
-78 25 -112 69 -72 19 17 19 16 14 -12 -6 -28 -6 -28 4 -6 6 13 21 33 33 43
12 11 51 47 87 81 70 67 182 131 288 166 75 24 117 52 137 91 8 16 24 31 35
35 24 8 26 37 5 59 -8 8 -35 18 -60 22 -50 7 -54 12 -25 37 23 20 17 45 -14
52 -141 28 -171 14 -273 -125 -31 -41 -67 -87 -81 -103 l-26 -27 -12 40 c-10
32 -9 48 3 82 30 89 -11 156 -111 179 -45 10 -56 16 -50 28 4 9 9 26 12 39 4
23 7 23 66 17 33 -4 79 -13 101 -21z m-1920 -27 c17 -24 20 -77 6 -77 -6 0 -7
-15 -4 -34 4 -29 1 -37 -21 -51 -38 -25 -74 -13 -92 31 -8 19 -19 32 -25 29
-5 -4 -21 1 -34 9 -42 28 -28 86 24 104 19 7 32 7 39 0 7 -7 17 -6 32 5 26 18
56 12 75 -16z m1243 -65 c9 2 20 18 24 36 9 34 14 37 36 23 11 -6 11 -17 4
-44 l-10 -36 49 -10 c28 -6 61 -11 74 -11 13 0 27 -5 31 -11 9 -16 120 -5 142
13 9 8 29 19 44 26 17 7 30 22 34 39 10 46 13 53 23 53 7 0 7 -9 1 -26 -6 -14
-8 -30 -5 -35 3 -4 -1 -22 -10 -40 -25 -47 -10 -46 21 1 26 40 30 42 66 36 20
-3 48 -11 61 -17 45 -20 71 -92 53 -146 -9 -29 -20 -29 -32 -2 l-9 20 -26 -20
c-15 -11 -28 -18 -31 -16 -2 2 -16 -16 -31 -40 -22 -38 -24 -45 -10 -45 24 0
4 -16 -29 -24 -23 -5 -30 -2 -42 23 -17 32 -61 45 -126 36 l-35 -4 23 19 c13
11 36 28 50 39 50 36 18 29 -47 -10 -77 -46 -144 -67 -246 -76 -76 -6 -77 -6
-70 15 9 30 -2 27 -45 -12 -94 -85 -225 -139 -294 -122 -28 7 -86 53 -86 68 0
6 7 4 17 -3 15 -12 16 -12 10 4 -21 55 -20 67 4 67 53 0 179 117 179 166 0 19
32 124 44 143 3 5 45 -11 92 -36 48 -24 94 -43 102 -41z m355 41 c7 -14 -13
-73 -25 -73 -9 0 -9 3 0 12 7 7 12 23 12 36 0 24 -2 24 -46 18 -59 -8 -76 -18
-44 -27 24 -7 24 -7 3 -8 -42 -2 -26 -30 20 -34 40 -3 40 -4 -10 -5 -37 -1
-53 2 -52 11 3 37 17 62 39 68 35 10 98 11 103 2z m-853 -13 c0 -5 -7 -10 -15
-10 -8 0 -15 5 -15 10 0 6 7 10 15 10 8 0 15 -4 15 -10z m8 -53 c5 -26 -6 -63
-23 -81 -13 -13 -14 -20 -4 -38 9 -16 9 -23 0 -26 -6 -2 -11 -10 -11 -18 0
-10 -7 -13 -23 -9 -18 5 -25 0 -35 -22 -34 -77 -120 -219 -144 -237 -23 -16
-33 -18 -55 -10 -17 6 -27 17 -27 27 1 9 -2 14 -7 11 -5 -3 -9 0 -9 6 0 8 10
10 28 6 15 -3 21 -3 14 0 -18 8 -4 24 16 18 13 -5 14 -4 3 4 -11 8 -10 12 6
21 11 5 24 7 28 3 5 -4 5 -1 1 6 -4 6 -3 12 2 12 12 0 66 89 59 96 -3 3 -22
-16 -43 -41 -51 -63 -114 -99 -158 -91 -67 13 -62 95 7 119 9 4 17 2 17 -3 0
-19 31 -10 56 15 14 14 30 22 36 19 7 -4 8 -2 4 4 -4 6 12 22 38 37 46 27 106
87 106 106 0 6 14 28 32 50 25 31 38 39 57 37 16 -2 27 -10 29 -21z m1471 -71
c9 -11 5 -16 -21 -26 -18 -7 -41 -12 -50 -11 -22 3 -23 -6 -4 -24 12 -12 16
-12 26 1 7 8 15 12 18 9 3 -3 12 1 20 8 12 9 11 5 -2 -15 -12 -18 -23 -25 -33
-21 -12 5 -14 3 -8 -8 5 -8 -1 -6 -12 4 -21 18 -21 18 -26 0 -4 -14 -5 -14 -6
4 l-1 23 -25 -22 c-14 -12 -25 -28 -25 -35 0 -7 -4 -13 -10 -13 -5 0 -7 -7 -4
-15 4 -9 0 -15 -9 -15 -8 0 -17 -7 -21 -15 -4 -12 3 -11 35 6 23 11 38 16 35
11 -6 -11 -95 -57 -109 -57 -4 0 -22 -16 -40 -36 -18 -20 -52 -49 -77 -65 -54
-34 -71 -54 -65 -73 4 -9 0 -11 -10 -7 -13 5 -20 -5 -16 -26 0 -5 -6 -8 -14
-8 -24 0 -18 55 9 87 43 52 54 83 44 122 -6 20 -19 46 -31 59 l-21 22 21 28
c11 15 28 28 37 30 25 5 19 -23 -9 -38 -14 -7 -25 -18 -25 -23 0 -5 11 -2 25
7 34 23 42 20 50 -15 5 -22 3 -34 -6 -40 -11 -7 -10 -9 5 -9 12 0 16 -5 12
-15 -11 -31 19 -14 66 37 27 28 73 86 103 128 57 81 85 106 126 112 19 2 25
-2 30 -24 4 -16 12 -34 18 -42z m65 55 c7 -10 -42 -33 -55 -26 -5 4 -9 13 -9
21 0 15 55 20 64 5z m16 -95 c0 -7 -3 -28 -6 -45 -6 -26 -10 -31 -28 -26 -17
5 -18 4 -6 -4 18 -13 5 -14 -18 -2 -12 6 -24 4 -37 -6 -19 -14 -18 -15 13 -11
17 3 32 1 32 -4 0 -5 13 -1 29 8 17 10 27 22 24 27 -4 6 -1 7 7 2 10 -6 5 -15
-19 -37 -23 -21 -36 -26 -45 -19 -7 6 -17 6 -26 1 -12 -8 -12 -10 4 -10 11 0
17 -3 13 -6 -9 -10 -47 6 -44 19 1 7 -6 11 -15 11 -25 -2 -23 0 21 29 22 15
47 40 57 57 19 31 44 41 44 16z m70 -11 c10 -12 9 -16 -4 -21 -22 -8 -46 2
-46 21 0 19 34 20 50 0z m-1600 -71 c0 -28 -4 -43 -10 -39 -6 4 -9 19 -8 33 2
21 -1 26 -14 24 -12 -2 -16 2 -12 13 3 8 15 15 25 15 16 0 19 -8 19 -46z
m1385 -51 c-2 -10 -4 -21 -4 -24 -1 -4 -8 -10 -17 -13 -14 -5 -15 -4 -4 9 14
16 3 20 -19 6 -7 -5 -11 -13 -7 -19 3 -5 -1 -13 -10 -16 -24 -9 -34 -7 -34 7
0 10 23 26 97 66 1 1 0 -7 -2 -16z m-130 -73 c-3 -5 -12 -10 -18 -10 -7 0 -6
4 3 10 19 12 23 12 15 0z m-1731 -15 c6 -17 4 -18 -18 -9 -20 8 -21 24 -2 24
8 0 16 -7 20 -15z m1650 -30 c-10 -8 -24 -15 -30 -15 -6 0 -19 -9 -29 -20 -10
-11 -22 -20 -27 -20 -5 0 4 11 20 25 17 14 35 25 41 25 6 0 11 5 11 10 0 6 8
10 17 10 15 0 14 -2 -3 -15z m16 -8 c0 -2 -18 -18 -40 -36 -22 -17 -40 -27
-40 -22 0 6 17 22 38 35 40 27 42 28 42 23z m-1915 -26 c3 -5 1 -12 -5 -16 -5
-3 -10 1 -10 9 0 18 6 21 15 7z m361 -59 c-22 -5 -30 3 -21 18 5 8 11 7 22 -2
15 -12 14 -13 -1 -16z m1433 21 c-5 -28 1 -35 19 -23 9 7 2 -1 -16 -19 -18
-17 -38 -31 -45 -31 -8 0 -7 4 3 10 13 9 13 10 0 10 -8 1 -5 5 8 11 13 5 20
13 17 19 -3 5 -3 15 0 20 7 12 16 13 14 3z m-1060 -89 c18 -13 22 -23 17 -45
-5 -26 -3 -29 17 -24 16 4 29 0 41 -14 18 -19 18 -22 2 -46 -24 -37 -60 -51
-91 -37 -31 14 -35 15 -35 4 0 -12 46 -32 74 -32 25 0 76 48 76 72 0 27 84 31
524 24 417 -6 586 -13 586 -25 0 -4 -19 -14 -42 -23 -24 -9 -70 -28 -103 -42
-310 -129 -730 -139 -1040 -24 -44 16 -94 29 -112 28 -37 -1 -63 22 -63 56 0
13 -6 33 -12 44 -10 16 -10 23 5 37 14 14 21 15 36 6 21 -13 31 -8 31 17 0 16
31 38 55 39 6 1 21 -6 34 -15z m976 -23 c-10 -16 -25 -3 -25 22 0 20 1 20 16
5 9 -9 13 -21 9 -27z"/>
<path d="M1490 3510 c0 -5 5 -10 11 -10 5 0 7 5 4 10 -3 6 -8 10 -11 10 -2 0
-4 -4 -4 -10z"/>
<path d="M3093 3133 c9 -2 23 -2 30 0 6 3 -1 5 -18 5 -16 0 -22 -2 -12 -5z"/>
<path d="M3491 3544 c0 -11 3 -14 6 -6 3 7 2 16 -1 19 -3 4 -6 -2 -5 -13z"/>
<path d="M3381 3533 c-1 -12 3 -24 9 -28 5 -3 7 -12 4 -20 -4 -10 0 -12 14 -8
16 4 21 -1 25 -24 l4 -28 2 28 c0 17 -5 30 -14 33 -13 5 -13 9 -3 23 12 14 11
14 -4 2 -15 -11 -18 -11 -22 0 -13 41 -14 43 -15 22z"/>
<path d="M3538 3393 c7 -3 16 -2 19 1 4 3 -2 6 -13 5 -11 0 -14 -3 -6 -6z"/>
<path d="M2527 3283 c-4 -3 -7 -16 -7 -27 1 -21 1 -21 15 -2 8 11 15 23 15 28
0 10 -14 11 -23 1z"/>
<path d="M2282 3195 c-27 -59 0 -174 38 -159 8 3 33 8 55 11 22 4 43 11 47 17
13 19 9 75 -7 106 -19 36 -43 50 -88 50 -27 0 -36 -5 -45 -25z m99 -6 c15 -12
20 -22 13 -25 -7 -3 -9 -15 -6 -26 4 -17 2 -20 -13 -15 -15 6 -16 3 -11 -27 6
-29 3 -34 -16 -40 -39 -10 -46 -7 -57 25 -16 47 -14 73 10 103 25 31 49 33 80
5z"/>
<path d="M2300 2670 c-9 -6 -10 -10 -3 -10 6 0 15 5 18 10 8 12 4 12 -15 0z"/>
<path d="M2390 2633 c0 -7 10 -17 21 -24 16 -8 20 -8 17 1 -2 6 -7 11 -12 10
-5 -1 -13 4 -17 12 -6 9 -9 9 -9 1z"/>
<path d="M1810 2513 c0 -5 14 -9 31 -10 33 -2 62 -20 54 -33 -2 -4 7 -12 21
-19 31 -14 34 -14 34 0 0 5 -4 8 -9 5 -5 -3 -22 9 -37 27 -20 22 -39 33 -61
35 -18 1 -33 -1 -33 -5z"/>
<path d="M1969 2453 c-12 -16 -12 -17 2 -5 14 10 20 6 43 -29 25 -38 29 -40
45 -25 15 14 20 14 49 -4 18 -11 32 -15 32 -10 0 16 -63 38 -81 29 -17 -9 -40
11 -52 44 -4 9 -10 17 -15 17 -5 0 -16 -8 -23 -17z"/>
<path d="M2170 2349 c0 -5 5 -7 10 -4 6 3 10 8 10 11 0 2 -4 4 -10 4 -5 0 -10
-5 -10 -11z"/>
<path d="M3585 2340 c-3 -5 -1 -10 4 -10 6 0 11 5 11 10 0 6 -2 10 -4 10 -3 0
-8 -4 -11 -10z"/>
<path d="M2795 2559 c-4 -11 -4 -23 -1 -26 3 -4 6 1 6 10 0 10 5 17 10 17 6 0
10 5 10 10 0 18 -19 10 -25 -11z"/>
<path d="M2911 2504 c0 -11 3 -14 6 -6 3 7 2 16 -1 19 -3 4 -6 -2 -5 -13z"/>
<path d="M2808 2493 c7 -3 16 -2 19 1 4 3 -2 6 -13 5 -11 0 -14 -3 -6 -6z"/>
<path d="M2831 2471 c-12 -8 -9 -11 12 -17 16 -3 31 -4 34 0 4 3 -5 6 -18 6
-19 0 -21 2 -9 10 8 5 11 10 5 10 -5 0 -17 -4 -24 -9z"/>
<path d="M2890 2460 c0 -11 4 -20 9 -20 5 0 7 9 4 20 -3 11 -7 20 -9 20 -2 0
-4 -9 -4 -20z"/>
<path d="M3275 2443 c3 -8 5 -17 5 -19 0 -2 5 -4 10 -4 6 0 10 8 10 18 0 10
-7 19 -15 19 -10 0 -14 -6 -10 -14z"/>
<path d="M3235 2420 c-3 -5 1 -10 9 -10 9 0 16 5 16 10 0 6 -4 10 -9 10 -6 0
-13 -4 -16 -10z"/>
<path d="M3200 1910 c0 -13 11 -13 30 0 12 8 11 10 -7 10 -13 0 -23 -4 -23
-10z"/>
<path d="M3350 1860 c-9 -6 -10 -10 -3 -10 6 0 15 5 18 10 8 12 4 12 -15 0z"/>
<path d="M1350 1680 c-6 -4 -31 -5 -54 -3 -34 4 -44 2 -49 -11 -4 -10 -3 -15
1 -13 4 3 61 -6 127 -19 119 -23 210 -32 220 -23 3 3 -38 11 -89 18 -52 7
-112 17 -133 24 l-38 11 35 6 c29 4 31 7 14 12 -12 3 -27 2 -34 -2z"/>
<path d="M3643 1683 c9 -2 25 -2 35 0 9 3 1 5 -18 5 -19 0 -27 -2 -17 -5z"/>
<path d="M3733 1673 c9 -2 25 -2 35 0 9 3 1 5 -18 5 -19 0 -27 -2 -17 -5z"/>
<path d="M3645 1660 c-3 -5 -2 -10 4 -10 5 0 13 5 16 10 3 6 2 10 -4 10 -5 0
-13 -4 -16 -10z"/>
<path d="M1389 1575 c50 -17 189 -31 156 -17 -11 5 -47 12 -80 16 -33 4 -73 9
-90 11 -20 3 -15 0 14 -10z"/>
<path d="M2625 1440 c3 -5 8 -10 11 -10 2 0 4 5 4 10 0 6 -5 10 -11 10 -5 0
-7 -4 -4 -10z"/>
<path d="M2410 1420 c0 -5 5 -10 11 -10 5 0 7 5 4 10 -3 6 -8 10 -11 10 -2 0
-4 -4 -4 -10z"/>
<path d="M2746 1319 c6 -10 -47 -18 -81 -12 -19 3 -25 1 -17 -4 15 -11 -185
-48 -345 -64 -59 -6 -110 -13 -113 -16 -3 -3 48 -3 113 -1 64 2 117 0 117 -4
0 -5 12 -8 28 -7 l27 1 -25 7 c-19 5 -3 11 66 24 50 10 99 14 109 11 12 -5 16
-4 12 3 -6 9 36 24 78 28 6 0 20 6 32 13 12 7 28 12 37 12 8 0 17 4 20 8 3 5
-10 8 -29 8 -18 -1 -31 -4 -29 -7z"/>
<path d="M2588 1293 c7 -3 16 -2 19 1 4 3 -2 6 -13 5 -11 0 -14 -3 -6 -6z"/>
<path d="M2488 1283 c6 -2 18 -2 25 0 6 3 1 5 -13 5 -14 0 -19 -2 -12 -5z"/>
<path d="M2706 1268 c5 -8 2 -9 -9 -5 -20 7 -47 -1 -47 -14 0 -14 43 -10 62 5
17 12 15 26 -4 26 -5 0 -6 -5 -2 -12z"/>
<path d="M2737 1246 c-20 -8 -59 -17 -85 -22 -26 -4 -54 -9 -62 -11 -8 -1 -41
-7 -74 -12 -83 -14 -101 -35 -21 -27 122 14 226 39 284 71 33 18 8 18 -42 1z"/>
<path d="M2895 1250 c-3 -6 1 -7 9 -4 18 7 21 14 7 14 -6 0 -13 -4 -16 -10z"/>
<path d="M2566 1232 c-3 -5 8 -6 25 -4 16 2 29 6 29 8 0 8 -49 4 -54 -4z"/>
<path d="M2901 1214 c0 -11 3 -14 6 -6 3 7 2 16 -1 19 -3 4 -6 -2 -5 -13z"/>
<path d="M2758 1213 c7 -3 16 -2 19 1 4 3 -2 6 -13 5 -11 0 -14 -3 -6 -6z"/>
<path d="M2328 1203 c6 -2 18 -2 25 0 6 3 1 5 -13 5 -14 0 -19 -2 -12 -5z"/>
<path d="M2705 1200 c-3 -5 -1 -10 4 -10 6 0 11 5 11 10 0 6 -2 10 -4 10 -3 0
-8 -4 -11 -10z"/>
<path d="M2393 1193 c9 -2 23 -2 30 0 6 3 -1 5 -18 5 -16 0 -22 -2 -12 -5z"/>
<path d="M2060 1160 c0 -5 5 -10 11 -10 5 0 7 5 4 10 -3 6 -8 10 -11 10 -2 0
-4 -4 -4 -10z"/>
<path d="M3395 1620 c-3 -5 -1 -10 4 -10 6 0 11 5 11 10 0 6 -2 10 -4 10 -3 0
-8 -4 -11 -10z"/>
<path d="M3454 1535 c-10 -8 -14 -14 -9 -14 6 0 19 6 29 14 11 8 15 15 10 15
-6 0 -19 -7 -30 -15z"/>
<path d="M800 1850 c0 -12 48 -60 60 -60 20 0 17 17 -7 42 -27 28 -53 37 -53
18z m50 -25 c13 -14 19 -25 13 -25 -5 0 -20 11 -33 25 -13 14 -19 25 -13 25 5
0 20 -11 33 -25z"/>
<path d="M292 1717 c-12 -13 -22 -27 -22 -32 0 -5 7 1 16 13 9 13 26 27 38 32
14 6 16 9 5 9 -8 1 -25 -9 -37 -22z"/>
<path d="M827 1659 c17 -19 40 -50 52 -69 25 -41 28 -33 5 13 -20 40 -43 66
-69 79 -13 7 -10 0 12 -23z"/>
<path d="M368 1633 c7 -3 16 -2 19 1 4 3 -2 6 -13 5 -11 0 -14 -3 -6 -6z"/>
<path d="M515 1619 c-4 -6 -5 -12 -2 -15 2 -3 7 2 10 11 7 17 1 20 -8 4z"/>
<path d="M499 1562 c-3 -18 -2 -35 3 -38 13 -9 15 -3 8 36 l-6 35 -5 -33z"/>
<path d="M902 1530 c0 -14 2 -19 5 -12 2 6 2 18 0 25 -3 6 -5 1 -5 -13z"/>
<path d="M345 1498 c-15 -12 -34 -36 -41 -54 -15 -36 -19 -104 -6 -104 5 0 7
13 4 30 -5 34 35 109 70 135 13 8 18 15 12 15 -6 0 -24 -10 -39 -22z"/>
<path d="M908 1480 c-12 -41 -10 -45 29 -45 34 0 38 -3 44 -30 l6 -30 12 29
c6 16 14 33 18 39 3 6 1 7 -5 3 -6 -3 -29 -4 -51 0 -34 5 -40 10 -43 33 l-3
26 -7 -25z"/>
<path d="M321 1304 c27 -30 93 -63 125 -64 18 0 22 -8 27 -46 3 -28 13 -54 26
-67 l20 -21 -20 42 c-21 42 -19 102 2 102 6 0 8 4 4 10 -4 6 -15 6 -31 -1 -37
-13 -101 6 -136 42 -37 36 -50 38 -17 3z"/>
<path d="M221 1194 c0 -12 7 -28 17 -35 15 -12 16 -12 6 1 -7 8 -14 24 -17 35
-4 19 -5 19 -6 -1z"/>
<path d="M777 1124 c-9 -13 -36 -28 -60 -35 -68 -18 -87 -28 -42 -22 22 3 58
16 80 28 40 23 41 23 64 4 13 -10 28 -19 35 -19 6 1 0 7 -13 14 -13 7 -29 22
-35 34 -11 20 -11 20 -29 -4z"/>
</g>
</svg>
